<?xml version="1.0" encoding="UTF-8" standalone="no"?>
<!DOCTYPE svg PUBLIC "-//W3C//DTD SVG 1.1//EN" "http://www.w3.org/Graphics/SVG/1.1/DTD/svg11.dtd">
<svg width="100%" height="100%" viewBox="0 0 842 596" version="1.1" xmlns="http://www.w3.org/2000/svg" xmlns:xlink="http://www.w3.org/1999/xlink" xml:space="preserve" xmlns:serif="http://www.serif.com/" style="fill-rule:evenodd;clip-rule:evenodd;stroke-linejoin:round;stroke-miterlimit:2;">
    <g>
        <rect x="0" y="0" width="840" height="595.3" style="fill:rgb(249,33,33);"/>
        <g transform="matrix(6.76368,0,0,6.2035,-2425.93,-1542.84)">
            <circle cx="420.9" cy="296.5" r="45.7" style="fill:rgb(244,249,10);"/>
        </g>
        <g transform="matrix(64,0,0,1,-12600,0)">
            <rect x="200" y="100" width="10" height="390" style="fill:rgb(250,41,41);"/>
        </g>
        <g transform="matrix(1.75,0,0,0.923077,-212.5,33.0769)">
            <ellipse cx="250" cy="300" rx="60" ry="130" style="fill:rgb(250,48,48);"/>
        </g>
        <g transform="matrix(1.17389,0,0,1.36324,-30.9122,-67.2989)">
            <g transform="matrix(181.486,0,0,181.486,260.934,370)">
            </g>
            <text x="160px" y="370px" style="font-family:'ArialMT', 'Arial', sans-serif;font-size:181.486px;">d</text>
        </g>
        <g transform="matrix(1.01948,0,0,0.249584,-54.455,362.484)">
            <g transform="matrix(502.577,0,0,502.577,748.65,470)">
            </g>
            <text x="330px" y="470px" style="font-family:'ArialMT', 'Arial', sans-serif;font-size:502.577px;">M</text>
        </g>
    </g>
</svg>
